<svg xmlns="http://www.w3.org/2000/svg" fill="none" viewBox="-0.5 -0.5 48 48" id="Docker-Icon--Streamline-Svg-Logos.svg" height="48" width="48"><desc>Docker Icon Streamline Icon: https://streamlinehq.com</desc><path fill="#2396ED" d="M45.560478125 19.567764583333336c-1.0363010416666665 -0.7190510416666666 -3.411171875 -0.9887135416666666 -5.267867708333333 -0.6291635416666665 -0.21590625 -1.797603125 -1.2090260416666667 -3.370536458333333 -2.9362270833333333 -4.7636947916666665l-0.9931197916666668 -0.7190510416666666 -0.6908510416666667 1.0336572916666666c-0.8635760416666667 1.3482145833333332 -1.2953885416666666 3.235705208333333 -1.1658447916666665 5.033308333333332 0.04318125 0.6291635416666665 0.25908749999999997 1.752659375 0.9067572916666666 2.7413729166666667 -0.6044885416666665 0.35950104166666663 -1.8566958333333334 0.8089385416666667 -3.497534375 0.8089385416666667H0.6971764583333333l-0.08635760416666666 0.35950104166666663c-0.3022574895833333 1.797603125 -0.3022574895833333 7.415180208333332 3.2384468749999997 11.7294375C6.526390625 38.44271979166666 10.498869791666667 40.105540624999996 15.72355625 40.105540624999996c11.312997916666665 0 19.68976875 -5.437802083333333 23.619115625 -15.279748958333334 1.5544270833333331 0.044943750000000005 4.879236458333334 0 6.563256249999999 -3.370536458333333 0.04318125 -0.08988750000000001 0.12949479166666666 -0.2696135416666666 0.43176354166666664 -0.9437208333333333L46.510416666666664 20.151984374999998l-0.9499385416666666 -0.5842197916666667ZM25.654803124999997 6.894557291666666h-4.749692708333333v4.494032291666667h4.749692708333333v-4.494032291666667Zm0 5.392858333333333h-4.749692708333333v4.494032291666667h4.749692708333333v-4.494032291666667Zm-5.613317708333334 0h-4.749692708333333v4.494032291666667h4.749692708333333v-4.494032291666667Zm-5.6132687500000005 0h-4.749741666666666v4.494032291666667h4.749741666666666v-4.494032291666667ZM8.814898958333332 17.680273958333334H4.0651621874999995v4.494032291666667h4.749736770833333v-4.494032291666667Zm5.613317708333334 0h-4.749741666666666v4.494032291666667h4.749741666666666v-4.494032291666667Zm5.6132687500000005 0h-4.749692708333333v4.494032291666667h4.749692708333333v-4.494032291666667Zm5.613317708333334 0h-4.749692708333333v4.494032291666667h4.749692708333333v-4.494032291666667Zm5.613317708333334 0h-4.749741666666666v4.494032291666667h4.749741666666666v-4.494032291666667Z" stroke-width="1"></path></svg>