<svg role="img" viewBox="0 0 50 50" xmlns="http://www.w3.org/2000/svg" id="Langchain--Streamline-Simple-Icons.svg" height="50" width="50"><desc>Langchain Streamline Icon: https://streamlinehq.com</desc><title>LangChain</title><path d="M12.705833333333334 12.328125000000002C5.699791666666667 12.328125000000002 0 18.01291666666667 0 25s5.700000000000001 12.671875 12.705833333333334 12.671875h24.588333333333335C44.30020833333334 37.671875 50 31.987083333333334 50 25s-5.700000000000001 -12.671875 -12.705833333333334 -12.671875ZM12.452916666666669 16.356250000000003c1.0270833333333333 0.025833333333333333 2.125 0.52 2.652083333333333 1.2975 0.7652083333333334 0.9566666666666668 0.9954166666666667 2.2225 1.8633333333333335 3.110833333333334 1.1675000000000002 1.2745833333333334 2.497916666666667 2.3968750000000005 3.5752083333333333 3.754166666666667 1.0191666666666668 1.240416666666667 1.7470833333333335 2.695208333333334 2.3825000000000003 4.161458333333334 0.25916666666666666 0.4864583333333334 0.261875 1.08375 0.6458333333333334 1.4993750000000001 0.1891666666666667 0.25083333333333335 1.11375 0.9339583333333333 0.9131250000000001 1.1760416666666667 0.115625 0.25083333333333335 0.9795833333333335 0.5958333333333333 0.6797916666666667 0.8389583333333334 -0.405 0.08333333333333334 -0.8602083333333334 0.09916666666666668 -1.1700000000000002 -0.22375 -0.114375 0.2625 -0.38125000000000003 0.12416666666666668 -0.5872916666666667 0.09000000000000001a8.333333333333334 8.333333333333334 0 0 0 -0.05208333333333334 0.15333333333333335c-0.685 0.045625 -1.1987500000000002 -0.65125 -1.5250000000000001 -1.1770833333333333 -0.6481250000000001 -0.35000000000000003 -1.38375 -0.5629166666666667 -2.0458333333333334 -0.9291666666666667 -0.03791666666666667 0.603125 0.09416666666666666 1.3510416666666667 -0.48125000000000007 1.7402083333333336 -0.02916666666666667 1.159375 1.7575 0.1366666666666667 1.9212500000000001 1.0008333333333335 -0.12708333333333333 0.013958333333333335 -0.2679166666666667 -0.01979166666666667 -0.3695833333333334 0.07770833333333334 -0.46645833333333336 0.4525 -1.0010416666666666 -0.3427083333333334 -1.538541666666667 -0.014583333333333335 -0.7216666666666667 0.3625 -0.7933333333333334 0.6585416666666667 -1.6866666666666668 0.7333333333333334 -0.049375 -0.07479166666666667 -0.029791666666666668 -0.12333333333333335 0.012291666666666668 -0.16895833333333335 0.25145833333333334 -0.2914583333333333 0.2697916666666667 -0.6345833333333334 0.6991666666666667 -0.7589583333333334 -0.4420833333333334 -0.06958333333333333 -0.8122916666666667 0.17354166666666668 -1.1845833333333333 0.3660416666666667 -0.4839583333333334 0.19791666666666669 -0.48000000000000004 -0.4460416666666667 -1.2245833333333334 0.03416666666666667 -0.08250000000000002 -0.06708333333333334 -0.043333333333333335 -0.12812500000000002 0.0037500000000000003 -0.18000000000000002 0.1891666666666667 -0.23062500000000002 0.4379166666666667 -0.26458333333333334 0.71875 -0.2516666666666667 -1.38125 -0.7679166666666667 -2.0314583333333336 0.9389583333333333 -2.6693750000000005 0.09000000000000001 -0.19166666666666668 0.050625 -0.2635416666666667 0.22250000000000003 -0.384375 0.34416666666666673 -0.10416666666666669 -0.11416666666666668 -0.025625000000000002 -0.2525 -0.020625000000000004 -0.386875 -0.12458333333333334 -0.05833333333333334 -0.28250000000000003 -0.08541666666666668 -0.24562500000000004 -0.28458333333333335 -0.24395833333333333 -0.08229166666666668 -0.4141666666666667 0.06145833333333334 -0.5958333333333333 0.19833333333333336 -0.16395833333333334 -0.12666666666666668 0.11083333333333334 -0.31083333333333335 0.16166666666666668 -0.44270833333333337 0.14625000000000002 -0.25333333333333335 0.47916666666666674 -0.05208333333333334 0.6481250000000001 -0.23458333333333337 0.4804166666666667 -0.2725 1.1500000000000001 0.16958333333333334 1.6989583333333336 0.09479166666666668 0.4229166666666667 0.053125 0.9466666666666668 -0.38020833333333337 0.7345833333333335 -0.8125000000000001 -0.45229166666666665 -0.5764583333333334 -0.3729166666666667 -1.3304166666666666 -0.38312500000000005 -2.019791666666667 -0.05583333333333334 -0.401875 -1.0229166666666667 -0.9129166666666667 -1.3025 -1.3462500000000002 -0.345625 -0.3902083333333333 -0.6145833333333334 -0.843125 -0.8839583333333334 -1.2879166666666666 -0.9720833333333334 -1.876666666666667 -0.66625 -4.288333333333333 -1.8910416666666667 -6.030625 -0.5541666666666667 0.3054166666666667 -1.2760416666666667 0.16125 -1.7537500000000001 -0.24791666666666667 -0.2579166666666667 0.23437500000000003 -0.2691666666666667 0.54125 -0.28958333333333336 0.8668750000000001 -0.61875 -0.6170833333333334 -0.5402083333333333 -1.783125 -0.04583333333333334 -2.469791666666667 0.20187500000000003 -0.27125000000000005 0.44312500000000005 -0.49437500000000006 0.7125000000000001 -0.6908333333333334 0.060833333333333336 -0.044375000000000005 0.08145833333333334 -0.08729166666666667 0.08020833333333334 -0.155625 0.24458333333333335 -1.0972916666666666 1.2008333333333334 -1.5397916666666667 2.2279166666666668 -1.5139583333333335m25.848125000000003 0.9583333333333335c1.1614583333333335 0 2.25125 0.4497916666666667 3.0708333333333333 1.2670833333333333s1.2708333333333335 1.9052083333333334 1.2708333333333335 3.0633333333333335c0 1.1583333333333334 -0.45145833333333335 2.2458333333333336 -1.2708333333333335 3.0620833333333337v0.00125l-1.8791666666666669 1.8739583333333334a4.333333333333334 4.333333333333334 0 0 1 -1.7910416666666669 1.07625l-0.03416666666666667 0.009791666666666667 -0.012083333333333333 0.03416666666666667a4.270833333333333 4.270833333333333 0 0 1 -0.9875 1.5225000000000002l-1.8787500000000001 1.8739583333333334c-0.8195833333333334 0.8175000000000001 -1.9104166666666669 1.2672916666666667 -3.071875 1.2672916666666667s-2.25125 -0.45 -3.0708333333333333 -1.2672916666666667c-1.69375 -1.6889583333333333 -1.69375 -4.43625 0 -6.125416666666667l1.8789583333333335 -1.8739583333333334a4.283333333333334 4.283333333333334 0 0 1 1.7875 -1.0714583333333334l0.03541666666666667 -0.011041666666666667 0.012083333333333333 -0.03291666666666667a4.3125 4.3125 0 0 1 0.9900000000000001 -1.528541666666667l1.8787500000000001 -1.8739583333333334c0.8195833333333334 -0.8175000000000001 1.9106250000000002 -1.2672916666666667 3.071875 -1.2672916666666667zm0 1.8677083333333333a2.4583333333333335 2.4583333333333335 0 0 0 -1.7475 0.7212500000000001l-1.8787500000000001 1.8739583333333334a2.460416666666667 2.460416666666667 0 0 0 -0.7139583333333334 1.9275000000000002l0.011041666666666667 0.11916666666666667c0.06729166666666668 0.5525 0.3104166666666667 1.0508333333333333 0.7029166666666666 1.4410416666666668 0.27083333333333337 0.27 0.569375 0.44041666666666673 0.9314583333333334 0.5595833333333334a1.8750000000000002 1.8750000000000002 0 0 1 0.02916666666666667 0.3295833333333334 1.8416666666666668 1.8416666666666668 0 0 1 -0.5435416666666667 1.3133333333333332l-0.11541666666666667 0.11541666666666667c-0.6277083333333334 -0.2141666666666667 -1.1510416666666667 -0.5270833333333333 -1.62375 -0.9983333333333334a4.291666666666667 4.291666666666667 0 0 1 -1.2002083333333333 -2.285l-0.020625000000000004 -0.12041666666666667 -0.09604166666666668 0.07666666666666667a2.291666666666667 2.291666666666667 0 0 0 -0.1825 0.16541666666666668l-1.8800000000000001 1.8739583333333334c-0.963125 0.9604166666666668 -0.963125 2.525 0 3.485416666666667 0.4814583333333334 0.4802083333333334 1.1145833333333335 0.7208333333333333 1.7487500000000002 0.7210416666666668 0.6339583333333334 0 1.2660416666666667 -0.24083333333333334 1.7475 -0.7212500000000001l1.8789583333333335 -1.8739583333333334c0.963125 -0.9604166666666668 0.963125 -2.523541666666667 0 -3.485416666666667a2.4375 2.4375 0 0 0 -0.9097916666666667 -0.5727083333333334 2.0833333333333335 2.0833333333333335 0 0 1 -0.02916666666666667 -0.335625c0 -0.5397916666666667 0.213125 -1.0520833333333335 0.6043750000000001 -1.4422916666666667 0.6289583333333334 0.2141666666666667 1.1875 0.56125 1.6587500000000002 1.03125 0.6264583333333335 0.6247916666666667 1.0404166666666668 1.4145833333333335 1.1991666666666667 2.285l0.021875000000000002 0.12041666666666667 0.09479166666666668 -0.07770833333333334a2.291666666666667 2.291666666666667 0 0 0 0.1847916666666667 -0.16541666666666668l1.8791666666666669 -1.8741666666666668c0.9629166666666668 -0.9604166666666668 0.9641666666666667 -2.5258333333333334 0 -3.4864583333333337a2.4583333333333335 2.4583333333333335 0 0 0 -1.7489583333333336 -0.7212500000000001Zm-20.777083333333337 10.743125000000001 -0.00125 0.00125c-0.16520833333333335 0.6412500000000001 -0.21833333333333335 1.7329166666666667 -1.0541666666666667 1.7645833333333334 -0.06875 0.37000000000000005 0.25583333333333336 0.509375 0.5531250000000001 0.3904166666666667 0.29375 -0.13437500000000002 0.4335416666666667 0.10583333333333333 0.5327083333333333 0.34520833333333334 0.45354166666666673 0.06604166666666667 1.12375 -0.15104166666666666 1.1491666666666667 -0.6870833333333334 -0.6770833333333334 -0.38895833333333335 -0.8860416666666667 -1.12875 -1.1795833333333334 -1.814375" fill="#c4bde2" stroke-width="1"></path></svg>