<svg xmlns="http://www.w3.org/2000/svg" fill="none" viewBox="-0.5 -0.5 24 24" id="Puppeteer--Streamline-Svg-Logos.svg" height="24" width="24"><desc>Puppeteer Streamline Icon: https://streamlinehq.com</desc><path fill="#DFDEDF" d="M18.89131354166667 12.865648958333333H4.085662500000001V12.030677083333334c0 -0.5610322916666667 0.4547770833333334 -1.015809375 1.0157614583333334 -1.015809375h12.77405625c0.56105625 0 1.0158333333333334 0.4547770833333334 1.0158333333333334 1.015809375v0.834971875Z" stroke-width="1"></path><path fill="#ffffff" d="M17.859859375000003 22.548720833333334H5.117116666666667c-0.5696572916666667 0 -1.0314541666666668 -0.461796875 -1.0314541666666668 -1.0314541666666668v-8.65159375h14.805651041666668v8.65159375c0 0.5696572916666667 -0.46174895833333335 1.0314541666666668 -1.0314541666666668 1.0314541666666668Z" stroke-width="1"></path><path fill="#000000" d="M18.707577083333334 12.697844791666666v-0.7488177083333334c0 -0.44203125 -0.358296875 -0.8004000000000001 -0.8003520833333333 -0.8004000000000001H5.092798958333334c-0.44205520833333334 0 -0.8003760416666666 0.35836875 -0.8003760416666666 0.8004000000000001v0.7488177083333334h14.415154166666667Zm0 8.926467708333334V13.033644791666667H4.292422916666667V21.6243125c0 0.44203125 0.35832083333333337 0.8003520833333333 0.8003760416666666 0.8003520833333333h12.814426041666668c0.44205520833333334 0 0.8003520833333333 -0.35832083333333337 0.8003520833333333 -0.8003520833333333ZM5.167932291666666 10.812875l0.04985729166666667 -0.544309375 -0.211671875 0.5486697916666666c0.028678125000000002 -0.0021802083333333335 0.057380208333333335 -0.004360416666666667 0.08668125 -0.004360416666666667h0.07513333333333333Zm12.576280208333333 -0.9175802083333333 0.07391145833333333 0.9175802083333333h0.08910104166666667c0.047677083333333335 0 0.09434791666666667 0.00388125 0.14049166666666668 0.009607291666666667l-0.3035041666666667 -0.9271875Zm1.0164083333333334 1.3061843750000002c0.175446875 0.200028125 0.28275625 0.4611979166666667 0.28275625 0.7475479166666668V21.6243125c0 0.6265104166666667 -0.5097135416666667 1.1361520833333334 -1.1361520833333334 1.1361520833333334H5.092798958333334c-0.6264624999999999 0 -1.1361760416666669 -0.5096416666666668 -1.1361760416666669 -1.1361520833333334V11.949027083333334c0 -0.30360000000000004 0.12041458333333335 -0.5791208333333333 0.31512395833333334 -0.7831979166666667l1.132678125 -2.9358541666666667 0.493925 -5.3955125 0.5572708333333334 0.05098333333333333 -0.44507395833333335 4.8614572916666665 0.156759375 0.06047083333333334 -0.21275000000000002 0.551496875 -0.22463333333333335 2.454004166666667h11.526809375000001l-0.6396635416666667 -7.9408697916666675 0.55775 -0.04496979166666667 0.37727187500000003 4.683327083333333 0.00023958333333333335 -0.000071875 1.208290625 3.691188541666667Zm-13.557182291666667 0.49445208333333335c0.14003645833333334 0 0.25352708333333335 0.11349062500000001 0.25352708333333335 0.25352708333333335 0 0.1400125 -0.11349062500000001 0.25352708333333335 -0.25352708333333335 0.25352708333333335 -0.1400125 0 -0.25352708333333335 -0.11351458333333334 -0.25352708333333335 -0.25352708333333335 0 -0.14003645833333334 0.11351458333333334 -0.25352708333333335 0.25352708333333335 -0.25352708333333335Zm0.8667885416666667 0c0.1400125 0 0.25352708333333335 0.11349062500000001 0.25352708333333335 0.25352708333333335 0 0.1400125 -0.11351458333333334 0.25352708333333335 -0.25352708333333335 0.25352708333333335 -0.14003645833333334 0 -0.25352708333333335 -0.11351458333333334 -0.25352708333333335 -0.25352708333333335 0 -0.14003645833333334 0.11349062500000001 -0.25352708333333335 0.25352708333333335 -0.25352708333333335Zm0.8394760416666667 0c0.1400125 0 0.25352708333333335 0.11349062500000001 0.25352708333333335 0.25352708333333335 0 0.1400125 -0.11351458333333334 0.25352708333333335 -0.25352708333333335 0.25352708333333335 -0.14003645833333334 0 -0.25352708333333335 -0.11351458333333334 -0.25352708333333335 -0.25352708333333335 0 -0.14003645833333334 0.11349062500000001 -0.25352708333333335 0.25352708333333335 -0.25352708333333335Z" stroke-width="1"></path><path fill="#000000" d="M6.079546875 17.197267708333335c0.04355625 -0.050384375 0.06648437500000001 -0.11660520833333335 0.06648437500000001 -0.19883020833333334 0 -0.08227291666666667 -0.022928125 -0.14585833333333334 -0.06648437500000001 -0.19624270833333335 -0.04585625 -0.050384375 -0.11008854166666668 -0.074246875 -0.19260104166666667 -0.074246875h-0.40350625v0.54351875h0.40350625c0.0825125 0 0.14674479166666668 -0.0238625 0.19260104166666667 -0.07419895833333333Zm-0.19260104166666667 -0.7953927083333334c0.174225 0 0.3118177083333334 0.05301979166666667 0.4149583333333333 0.1616947916666667 0.10318854166666667 0.10867500000000001 0.15362083333333335 0.2544854166666667 0.15362083333333335 0.4348677083333333 0 0.18287395833333334 -0.05043229166666666 0.32607291666666666 -0.15127291666666667 0.4347479166666667 -0.10318854166666667 0.10879479166666667 -0.24073333333333333 0.1644260416666667 -0.41730625000000005 0.1644260416666667h-0.40350625v0.7315916666666666h-0.3118177083333334V16.401875h0.7153239583333334Zm1.6822104166666667 1.1819604166666666v-0.56220625h0.3358v1.2694083333333335H7.569156250000001v-0.11444895833333334c-0.101775 0.10172708333333333 -0.234025 0.152590625 -0.3993854166666667 0.152590625 -0.15263854166666668 0 -0.2747541666666667 -0.050863541666666665 -0.36886250000000004 -0.15005104166666666 -0.09410833333333334 -0.0991875 -0.13991666666666666 -0.22643020833333335 -0.13991666666666666 -0.38412395833333335v-0.773375h0.3358v0.7021229166666667c0 0.089053125 0.022880208333333336 0.16282083333333333 0.07120416666666668 0.21629583333333335 0.045784375 0.053379166666666665 0.10683020833333334 0.0813625 0.18567708333333335 0.0813625 0.21116875 0 0.31548333333333334 -0.14501979166666665 0.31548333333333334 -0.43757500000000005Zm1.6457697916666667 0.3485458333333334c0.06610104166666667 -0.0687125 0.09916354166666667 -0.16030520833333334 0.09916354166666667 -0.2747541666666667s-0.0330625 -0.20860520833333335 -0.09916354166666667 -0.27726979166666665c-0.06873645833333333 -0.0687125 -0.15263854166666668 -0.10431458333333334 -0.256953125 -0.10431458333333334 -0.09410833333333334 0 -0.178034375 0.03560208333333334 -0.25182604166666667 0.10685416666666667 -0.07379166666666667 0.07125208333333334 -0.10936979166666667 0.16277291666666668 -0.10936979166666667 0.27473020833333334 0 0.11193333333333334 0.035578125 0.20355 0.10936979166666667 0.27216666666666667 0.07379166666666667 0.0713 0.15771770833333335 0.10690208333333333 0.25182604166666667 0.10690208333333333 0.10431458333333334 0 0.18821666666666667 -0.03560208333333334 0.256953125 -0.10431458333333334Zm-0.19844687500000002 -0.9488697916666667c0.165384375 0 0.312871875 0.06363333333333333 0.43757500000000005 0.19082812500000002 0.12465520833333334 0.12971041666666666 0.185653125 0.28994375 0.185653125 0.4832875 0 0.19331979166666666 -0.060997916666666666 0.35360104166666667 -0.185653125 0.480771875 -0.124703125 0.12724270833333334 -0.269675 0.19078020833333334 -0.43757500000000005 0.19078020833333334 -0.16536041666666668 0 -0.305253125 -0.045784375 -0.41970208333333336 -0.13732916666666667v0.7047822916666667h-0.3358v-1.875003125h0.3358v0.101775c0.111909375 -0.09410833333333334 0.2518020833333333 -0.13989270833333334 0.41970208333333336 -0.13989270833333334Zm1.8314947916666666 0.9488697916666667c0.066125 -0.0687125 0.0991875 -0.16030520833333334 0.0991875 -0.2747541666666667s-0.0330625 -0.20860520833333335 -0.0991875 -0.27726979166666665c-0.0687125 -0.0687125 -0.15263854166666668 -0.10431458333333334 -0.256953125 -0.10431458333333334 -0.09410833333333334 0 -0.178034375 0.03560208333333334 -0.25182604166666667 0.10685416666666667 -0.07376770833333333 0.07125208333333334 -0.10944166666666667 0.16277291666666668 -0.10944166666666667 0.27473020833333334 0 0.11193333333333334 0.03567395833333334 0.20355 0.10944166666666667 0.27216666666666667 0.07379166666666667 0.0713 0.15771770833333335 0.10690208333333333 0.25182604166666667 0.10690208333333333 0.10431458333333334 0 0.188240625 -0.03560208333333334 0.256953125 -0.10431458333333334Zm-0.19849479166666667 -0.9488697916666667c0.16536041666666668 0 0.31294375 0.06363333333333333 0.437646875 0.19082812500000002 0.12458333333333334 0.12971041666666666 0.18562916666666668 0.28994375 0.18562916666666668 0.4832875 0 0.19331979166666666 -0.06104583333333334 0.35360104166666667 -0.18562916666666668 0.480771875 -0.124703125 0.12724270833333334 -0.269675 0.19078020833333334 -0.437646875 0.19078020833333334 -0.1653125 0 -0.30520520833333337 -0.045784375 -0.41972604166666666 -0.13732916666666667v0.7047822916666667h-0.335728125v-1.875003125h0.335728125v0.101775c0.11198125 -0.09410833333333334 0.25189791666666667 -0.13989270833333334 0.41972604166666666 -0.13989270833333334Zm1.1192135416666666 0.5265562500000001h0.6130937500000001c-0.020340625 -0.07884687500000001 -0.05853020833333333 -0.13730520833333335 -0.11193333333333334 -0.17556666666666668 -0.053451041666666664 -0.03811770833333333 -0.11696458333333334 -0.058458333333333334 -0.1882885416666667 -0.058458333333333334 -0.06859270833333334 0 -0.134765625 0.020340625 -0.19329583333333333 0.06106979166666667 -0.06104583333333334 0.04070520833333333 -0.101775 0.09916354166666667 -0.11957604166666667 0.17295520833333333Zm0.312871875 -0.5265562500000001c0.17302708333333333 0 0.3231260416666667 0.06104583333333334 0.44778125 0.18062187500000002 0.12463125 0.12211562500000002 0.188240625 0.277221875 0.19588333333333333 0.46805v0.114496875h-0.9666708333333333c0.01780104166666667 0.08898125000000001 0.05594270833333334 0.16018541666666666 0.11452083333333334 0.213684375 0.058458333333333334 0.053403124999999996 0.12458333333333334 0.08133854166666668 0.20343020833333333 0.08133854166666668 0.14501979166666665 0 0.249334375 -0.05591875 0.315459375 -0.16785208333333335l0.3001979166666667 0.06358541666666667c-0.053451041666666664 0.12978229166666666 -0.1348375 0.226478125 -0.24166770833333331 0.292603125 -0.10685416666666667 0.066125 -0.23148541666666667 0.09913958333333334 -0.3739895833333333 0.09913958333333334 -0.18316145833333333 0 -0.3383395833333333 -0.0635375 -0.46297083333333333 -0.18816875 -0.12465520833333334 -0.12465520833333334 -0.1882885416666667 -0.2874760416666667 -0.1882885416666667 -0.48338333333333333 0 -0.19581145833333335 0.06363333333333333 -0.35865625000000007 0.19082812500000002 -0.4858989583333333 0.12463125 -0.12458333333333334 0.2798572916666667 -0.18821666666666667 0.46548645833333335 -0.18821666666666667Zm1.5695343750000001 1.03284375c0.06358541666666667 0 0.1348375 -0.020388541666666666 0.21114479166666666 -0.06106979166666667l0.09664791666666667 0.27980937499999997c-0.11703645833333333 0.06360937500000001 -0.22640625 0.09413229166666667 -0.33072083333333335 0.09413229166666667 -0.15517812500000003 0 -0.27729375 -0.04326875 -0.36632291666666666 -0.12724270833333334 -0.08900520833333334 -0.08385416666666666 -0.13225 -0.2085572916666667 -0.13225 -0.378996875v-0.5266281250000001h-0.27221458333333337v-0.27473020833333334h0.27221458333333337v-0.3840760416666667h0.3358v0.3840760416666667h0.41464687499999997v0.27473020833333334h-0.41464687499999997v0.5011604166666667c0 0.14504375000000003 0.06104583333333334 0.21883541666666667 0.18570104166666668 0.21883541666666667Zm0.70451875 -0.5062875h0.6130697916666666c-0.020340625 -0.07884687500000001 -0.05853020833333333 -0.13730520833333335 -0.111909375 -0.17556666666666668 -0.053451041666666664 -0.03811770833333333 -0.11698854166666667 -0.058458333333333334 -0.1882885416666667 -0.058458333333333334 -0.06861666666666667 0 -0.13478958333333332 0.020340625 -0.19329583333333333 0.06106979166666667 -0.06106979166666667 0.04070520833333333 -0.10179895833333334 0.09916354166666667 -0.11957604166666667 0.17295520833333333Zm0.312871875 -0.5265562500000001c0.17302708333333333 0 0.3231260416666667 0.06104583333333334 0.44775729166666667 0.18062187500000002 0.12465520833333334 0.12211562500000002 0.188240625 0.277221875 0.19590729166666668 0.46805v0.114496875h-0.9666947916666668c0.01780104166666667 0.08898125000000001 0.05594270833333334 0.16018541666666666 0.11452083333333334 0.213684375 0.058458333333333334 0.053403124999999996 0.12458333333333334 0.08133854166666668 0.20343020833333333 0.08133854166666668 0.14504375000000003 0 0.24935833333333332 -0.05591875 0.315459375 -0.16785208333333335l0.30015 0.06358541666666667c-0.053379166666666665 0.12978229166666666 -0.134765625 0.226478125 -0.24161979166666667 0.292603125 -0.10685416666666667 0.066125 -0.23148541666666667 0.09913958333333334 -0.3739895833333333 0.09913958333333334 -0.18316145833333333 0 -0.3383395833333333 -0.0635375 -0.46297083333333333 -0.18816875 -0.12465520833333334 -0.12465520833333334 -0.1882885416666667 -0.2874760416666667 -0.1882885416666667 -0.48338333333333333 0 -0.19581145833333335 0.06363333333333333 -0.35865625000000007 0.19082812500000002 -0.4858989583333333 0.12463125 -0.12458333333333334 0.2798572916666667 -0.18821666666666667 0.4655104166666667 -0.18821666666666667Zm1.1955208333333334 0.5265562500000001h0.6130697916666666c-0.020340625 -0.07884687500000001 -0.05853020833333333 -0.13730520833333335 -0.111909375 -0.17556666666666668 -0.053451041666666664 -0.03811770833333333 -0.11698854166666667 -0.058458333333333334 -0.1882885416666667 -0.058458333333333334 -0.06861666666666667 0 -0.13478958333333332 0.020340625 -0.19331979166666666 0.06106979166666667 -0.06104583333333334 0.04070520833333333 -0.101775 0.09916354166666667 -0.11955208333333334 0.17295520833333333Zm0.312871875 -0.5265562500000001c0.17302708333333333 0 0.3231260416666667 0.06104583333333334 0.44775729166666667 0.18062187500000002 0.12465520833333334 0.12211562500000002 0.188240625 0.277221875 0.19588333333333333 0.46805v0.114496875h-0.9666708333333333c0.01780104166666667 0.08898125000000001 0.05594270833333334 0.16018541666666666 0.11452083333333334 0.213684375 0.058458333333333334 0.053403124999999996 0.12458333333333334 0.08133854166666668 0.20343020833333333 0.08133854166666668 0.14504375000000003 0 0.249334375 -0.05591875 0.315459375 -0.16785208333333335l0.300221875 0.06358541666666667c-0.053475 0.12978229166666666 -0.1348375 0.226478125 -0.24169166666666667 0.292603125 -0.10685416666666667 0.066125 -0.23148541666666667 0.09913958333333334 -0.3739895833333333 0.09913958333333334 -0.18316145833333333 0 -0.3383395833333333 -0.0635375 -0.46297083333333333 -0.18816875 -0.12465520833333334 -0.12465520833333334 -0.1882885416666667 -0.2874760416666667 -0.1882885416666667 -0.48338333333333333 0 -0.19581145833333335 0.06363333333333333 -0.35865625000000007 0.19082812500000002 -0.4858989583333333 0.12463125 -0.12458333333333334 0.2798572916666667 -0.18821666666666667 0.4655104166666667 -0.18821666666666667Zm1.6890625000000001 0.020340625c0.03818958333333333 0 0.0687125 0.002515625 0.08910104166666667 0.010134375l-0.017848958333333335 0.3231260416666667h-0.07371979166666666c-0.30273750000000005 0 -0.45290833333333336 0.18062187500000002 -0.45290833333333336 0.5444052083333334v0.40954375000000004h-0.335728125v-1.2694083333333335h0.335728125v0.23148541666666667c0.11452083333333334 -0.165384375 0.26715937500000003 -0.24928645833333335 0.4553760416666667 -0.24928645833333335Z" stroke-width="1"></path><path fill="#00D8A2" d="m16.397083333333335 8.056396875 1.8116333333333334 -0.8745989583333333v-0.874575l-4.18556875 -1.9991072916666666 4.18556875 -2.1552221875V1.3095672916666667l-1.7491739583333334 -0.8121515625000001L11.503545833333334 2.9649875000000003 6.464221875000001 0.49741572916666665l-1.62423125 0.8746205208333333v0.7496227083333333l3.935635416666667 2.155215 -3.935635416666667 1.9991312500000002v0.9057927083333334l1.686690625 0.8745989583333333L11.524365625000002 5.4950833333333335 16.397083333333335 8.056396875Z" stroke-width="1"></path><path fill="#000000" d="M16.62408854166667 7.6995375v-0.37669687500000004l1.3637083333333335 -0.7066510416666667v0.423128125l-1.3637083333333335 0.6602197916666667ZM4.9496 6.606270833333334l1.3177322916666667 0.7564604166666667v0.30115625l-1.3177322916666667 -0.6666406250000001V6.606270833333334Zm6.749733333333333 -1.590809375 4.533036458333334 2.239720833333333v0.45036875L11.699333333333334 5.383317708333333v-0.36785625000000005ZM6.659051041666667 7.320708333333334l4.648563541666666 -2.3047916666666666v0.36728125l-4.648563541666666 2.3518697916666667V7.320708333333334Zm3.291515625 -3.7660822916666667L5.24644375 1.2834862500000002l1.2183770833333334 -0.619203125L11.503426041666668 3.2763500000000003 16.457721875 0.6654019791666667l1.26140625 0.6460771875000001 -4.587373958333334 2.3086249999999997c-0.18340104166666665 0.0922875 -0.18311354166666666 0.35424791666666666 0.00045520833333333334 0.44612812500000004l4.54005625 2.27225625 -1.1767614583333332 0.6097875 -4.992078125000001 -2.557863541666667 -5.080340625 2.61006875 -1.1603260416666668 -0.6661135416666667 4.690394791666667 -2.3315052083333336c0.18582083333333332 -0.09233541666666667 0.1842875 -0.358009375 -0.0025875000000000004 -0.44823645833333337ZM5.008178125000001 2.0529704166666667v-0.41335312500000004l4.387297916666667 2.188876458333333 -0.44351666666666667 0.17721979166666668 -3.94378125 -1.952743125ZM14.004484375 4.03003125c-0.006013541666666667 -0.0036416666666666667 -0.42020520833333336 -0.19906979166666666 -0.42020520833333336 -0.19906979166666666l4.403517708333333 -2.2161554166666666v0.4151811458333334L14.004484375 4.03003125Zm0.4407614583333333 0.21706250000000002 3.870396875 -1.9433658333333335c0.039171875 -0.019684166666666666 0.06394479166666668 -0.05981677083333334 0.06394479166666668 -0.10366291666666667V1.280539375c0 -0.0435490625 -0.02441354166666667 -0.083389375 -0.06313020833333334 -0.1032484375l-1.805284375 -0.9246527083333334c-0.0330625 -0.016914104166666666 -0.07225833333333333 -0.016973041666666668 -0.10536875000000001 -0.00017729166666666666L11.555463541666667 2.7137125c-0.032703125000000006 0.016627083333333334 -0.07134791666666668 0.016794791666666666 -0.10424270833333334 0.00035937500000000005L6.515444791666667 0.25175416666666667c-0.032822916666666674 -0.016383427083333332 -0.07153958333333334 -0.016206614583333334 -0.10431458333333334 0.00041208333333333337l-1.7898552083333334 0.9095661458333334c-0.03893229166666667 0.0198015625 -0.06346562500000001 0.059756875 -0.06346562500000001 0.10342572916666667v0.9343773958333333c0 0.04414083333333333 0.02506041666666667 0.08445072916666668 0.06466354166666666 0.10401510416666666l3.8866645833333333 1.920255625 -3.8686958333333337 1.9209072916666667c-0.03871666666666667 0.019286458333333336 -0.06358541666666667 0.058458333333333334 -0.06435208333333334 0.101775l-0.016914583333333334 0.9188260416666667c-0.0008385416666666667 0.044490625000000006 0.023934375 0.08550729166666667 0.06358541666666667 0.10560833333333335l1.8585677083333334 0.9403166666666667c0.032822916666666674 0.016579166666666666 0.07153958333333334 0.016627083333333334 0.10441041666666667 0.00011979166666666667l4.865362500000001 -2.4430312499999998c0.032894791666666666 -0.016579166666666666 0.07173125 -0.016459375 0.10460208333333333 0.000215625L16.360427083333335 8.211551041666667c0.032295833333333336 0.016387500000000003 0.07041354166666666 0.016794791666666666 0.10306875000000001 0.00100625l1.850613541666667 -0.8959697916666667c0.04001041666666667 -0.019382291666666666 0.065478125 -0.059919791666666666 0.065478125 -0.1043625v-0.9600104166666666c0 -0.04425104166666667 -0.025180208333333336 -0.08462083333333334 -0.06490312499999999 -0.104146875L14.445245833333333 4.24709375Z" stroke-width="1"></path></svg>